<?xml version="1.0" encoding="UTF-8" standalone="no"?>
<!-- Created with Inkscape (http://www.inkscape.org/) -->

<svg
   version="1.1"
   id="svg2"
   width="4929.9868"
   height="2162.6001"
   viewBox="0 0 4929.9868 2162.6001"
   sodipodi:docname="vecteezy_line-drawing-of-a-cheese-sandwich_12549086.eps"
   xmlns:inkscape="http://www.inkscape.org/namespaces/inkscape"
   xmlns:sodipodi="http://sodipodi.sourceforge.net/DTD/sodipodi-0.dtd"
   xmlns="http://www.w3.org/2000/svg"
   xmlns:svg="http://www.w3.org/2000/svg">
  <defs
     id="defs6" />
  <sodipodi:namedview
     id="namedview4"
     pagecolor="#ffffff"
     bordercolor="#000000"
     borderopacity="0.25"
     inkscape:showpageshadow="2"
     inkscape:pageopacity="0.0"
     inkscape:pagecheckerboard="0"
     inkscape:deskcolor="#d1d1d1" />
  <g
     id="g8"
     inkscape:groupmode="layer"
     inkscape:label="ink_ext_XXXXXX"
     transform="matrix(1.3333333,0,0,-1.3333333,0,2162.6)">
    <g
       id="g10"
       transform="scale(0.1)">
      <path
         d="m 7135.7,1822.4 c 1590.54,-551.1 3494.4,-1012.9 5484.9,-1019.298 1306.8,-4.204 2712.1,249.798 4077.4,97.097 576.3,-64.5 1111.3,-262 1698.8,-291.199 642.4,-32.098 1318,-34.5 1990.1,0 1462.1,75 2993.8,158.5 4417.1,339.699 1408.9,179.501 2873.3,385.001 3980.2,776.701 446.3,157.9 815,455.7 1213.5,631 1013.8,445.9 2053.8,709.3 2912.4,1213.5 268.1,157.4 647.7,386.3 582.4,631 -1829.4,-451.9 -3869.6,-693.1 -5921.8,-922.3 -85.6,-253.8 -149,-360.8 -339.7,-436.8 -561.6,-224 -1983.4,-48.6 -2815.3,-48.6 -3677.4,0 -7261.8,188.4 -10436,485.4 -722.7,67.6 -1477.9,14 -2087.2,242.7 -42.1,388.3 290.3,805.3 436.9,1165 -612,-186.1 -1001,-535.8 -1504.7,-922.3 C 10476.9,3497.1 9894.61,2758.9 9465.61,2696.1 9029.27,2632.3 8336,2951.1 7863.8,3084.5 6308.51,3523.8 4292.53,4187.3 3204.02,4540.6 4182.37,3458.2 5496.09,2390.6 7135.7,1822.4 Z m 15678.2,3397.8 c -472.8,112.5 -1050.6,348.6 -1456.2,291.2 -447.4,-63.3 -798.6,-443.3 -1019.3,-533.9 -640,-262.8 -1434.8,-343.6 -1941.6,-291.2 -919.2,94.9 -1577,731.3 -2718.2,873.7 -1037.1,129.3 -1887.4,-1324 -3058,-970.8 -99,-257 -199.2,-512.7 -291.2,-776.7 2208.3,4.5 4009.1,-346.3 6067.4,-436.8 2883.5,-126.8 5742.7,-145.7 8688.5,-48.6 -151.6,641.2 -271.9,1313.8 -533.9,1844.5 -1326.2,-434.3 -2596.5,-222.9 -3737.5,48.6 z m 12328.9,1553.25 c -604.7,-236.6 -1295.1,-387.52 -1941.5,-582.45 -14.4,-188.9 125.6,-384 0,-534 -592.6,-533.8 -1493.6,-367.2 -2329.9,-436.8 -275.6,-23 -573.2,-127.4 -873.7,-145.6 -1339.2,-81.3 -2127.7,894.5 -2960.9,145.6 168.6,-494.8 312.3,-1014.5 436.9,-1553.3 3076.3,467 6253.9,832.8 8882.7,1747.5 -228.4,629.2 -782.9,932.16 -1213.6,1359.05 z M 582.906,6093.9 C 3429.5,5008.8 6186.23,3833.9 9417.05,3133 10081.8,3827.4 10928.5,4339.8 11649.9,4977.5 10355.9,6095.8 8046.56,3871.4 6747.38,4783.3 6558.96,4915.6 6309.16,5449.6 6164.9,5560 5195.73,6301.6 4045.66,5151.2 2912.77,5414.4 2377.63,5538.7 2156.83,6191 2087.63,6821.99 1483.41,7161.79 1086.03,6309.89 582.906,6093.9 Z M 35725.3,8375.24 c 56.8,419.06 -766.1,637.11 -1310.5,533.94 -242.2,-126.37 -313.8,-410.89 -485.4,-582.45 -892,-891.96 -3090.3,-950.34 -4805.4,-1213.5 -1442,-221.27 -3035.5,-383.42 -4514.2,-339.78 -1754.5,51.77 -3794.2,-108.29 -5873.2,-97.08 -2037.8,10.96 -4099.6,43.66 -6018.9,97.08 C 8418.85,6893.08 3529.36,6791.63 1408.08,8715 962.004,8530.11 566.695,8294.38 437.281,7792.76 872.223,7363.89 2182.92,7536.41 2475.94,6919.06 c 144.32,-304.1 18.23,-862.46 388.31,-1067.86 689.25,-382.6 2021.28,449.75 2912.37,291.2 869.07,-154.6 876.24,-1158.4 1747.39,-1213.5 1059.93,-66.9 2321.58,1000.4 3640.49,728.1 441.3,-91.1 783.9,-518.2 1262,-631 1441.3,-339.9 2076.1,1027.1 3397.7,922.3 830.6,-65.9 1533,-626.3 2329.9,-776.7 639.2,-120.6 1516.6,-19.5 2038.7,194.2 399.4,163.5 682.5,524.3 1116.4,582.5 514.5,69 994.4,-210.8 1553.2,-339.8 1133.1,-261.5 2335.7,-290.9 3446.3,-48.5 505.8,110.3 1120.3,460.1 1601.8,436.8 538,-26.1 1070.6,-452.2 1698.9,-485.4 1112.1,-58.7 2079.3,320.6 3155,291.2 61.9,119.1 -100.4,657.68 97.1,776.67 731.9,158.06 1404.3,375.43 2087.2,582.49 117,204.12 -153.8,380.04 -97.1,679.56 205.3,328.08 821,144.39 873.7,533.92 z m -7378,1310.57 c 1191,459.39 1844.6,1456.09 2281.4,2669.69 -343.2,287.8 -734.4,527.6 -1165,728 -366.4,-1107.8 -1128,-2073 -1116.4,-3397.69 z M 8543.35,14102.9 c -447.34,-1300.6 -1269.05,-2484 -1213.48,-4125.85 622.67,-48.8 940.57,549.25 1262.01,1019.35 298.22,436.2 723.51,865.7 970.79,1310.5 365.44,657.4 612.53,1226.2 922.23,1893.1 84.2,181.2 320.3,369.8 194.2,533.9 -817.81,-104.5 -1433.77,-410.8 -2135.75,-631 z M 24561.3,14928 c -642.8,-1656.3 -1820.3,-3031.4 -1747.4,-5242.19 403.3,-95.06 742.2,282.23 970.8,533.89 1086.9,1196.8 1833.1,2754.6 2572.6,4271.5 -630.6,113.7 -1187.6,300.9 -1796,436.8 z m -8009,-4756.8 c -224.1,-248.84 -798,-786.24 -1262,-776.64 -1038.1,21.47 -686.3,1689.14 -436.8,2426.94 387.4,1146.1 998,2547.8 1359,3689 -1862.1,1.5 -3240.7,-480.6 -4951,-631 -230.2,-790.1 -718.4,-1470.4 -1067.8,-2087.2 -113.9,-201 -152.1,-484.2 -291.27,-728.1 -277.52,-486.3 -760.5,-1059.4 -1164.93,-1601.8 -304.04,-407.7 -1245.07,-1356.94 -1747.4,-679.53 -248.11,334.53 -74.11,1195.73 48.52,1601.83 247.41,819.2 750.77,1813.7 1019.32,2572.5 -1419.12,-549.1 -2810.25,-1057.6 -3980.2,-1990.1 -416.09,-331.6 -776.68,-799.2 -1262.03,-1310.5 -365.86,-385.4 -1103.27,-906.08 -970.8,-1601.81 149.06,-782.78 2264.83,-1238.83 3349.22,-1407.65 1485.77,-231.25 3021.58,-331.53 4368.54,-388.28 3156.83,-133.07 6195.63,-145.63 9368.03,-145.63 1271.8,0 2462.7,145.63 3689,145.63 1247.7,0 2516.4,-28.44 3786.1,48.52 1761.2,106.75 3502.4,427.15 5048.1,679.55 600.8,98.1 1204.4,109.56 1650.3,291.24 320.8,130.67 856.5,635.24 825.2,1019.32 -18.2,223.23 -476.2,618.62 -631,776.61 -813,829.4 -1472.3,1412.6 -2329.9,1990.1 -163.1,-287.3 -222.1,-676.5 -388.3,-970.8 -253.9,-449.4 -1601.7,-2065.06 -2378.5,-1795.91 -678.4,235.05 -82.9,1571.41 97.1,2038.61 288.1,747.8 578.4,1332.6 873.7,1941.6 -703.2,445.6 -1564.2,733.3 -2378.4,1067.9 -761.8,-1615.2 -1740.5,-3346.2 -2912.3,-4562.73 -356,-369.53 -762.1,-726.01 -1359.2,-436.87 -344.2,1133.7 44.1,2294 436.9,3252.2 347.8,848.2 933.9,1609.9 1164.9,2426.9 -1483.5,231.5 -2955.3,474.8 -4611.2,534 -818.6,-1548.1 -1767.6,-4063.4 -2960.9,-5387.9 z m 97.1,5387.9 c 0,-48.6 0,-97.1 0,-145.7 -415.4,-1176.8 -945.7,-2437.6 -1359.1,-3688.9 -83.3,-252.1 -148.9,-592.8 -194.1,-922.3 -37,-269.3 -186.4,-718.8 97,-922.23 422.4,-54.21 787.1,288.33 1019.3,533.93 1233.7,1304.9 1923.8,3438.7 2766.8,5145.2 -776.6,0 -1553.3,0 -2329.9,0 z M 35531.2,7501.51 c 150.1,-966.87 1697.5,-1175.74 1407.6,-2281.31 -170.5,-650.4 -1833.2,-709.8 -2475.5,-970.8 -321.7,-194.8 -545.9,-657.4 -873.7,-922.3 -803.1,-648.7 -2113.3,-990 -3252.1,-1456.1 -938.7,-384.2 -1777,-860.5 -2912.4,-1067.898 C 25311.6,417.199 22819.9,137.699 20289.8,26.5 c -663.8,-29.19922 -1349.2,-41 -1990.1,0 -563.9,36.1016 -1074.1,227.301 -1650.3,291.199 -1944.3,215.903 -3694,-166.797 -5484.9,0 C 7711.99,639.402 4589.79,1928.2 2912.77,4055.3 2744.61,4268.5 2655.99,4466.2 2621.54,4734.8 2240.42,5057.8 27.4297,5353.3 0.414063,6093.9 -19.9609,6653.41 719.102,6665.71 971.215,7064.68 -701.266,7111.99 92.6289,9125.96 1262.45,9151.87 c 53.65,874.23 643.66,1347.63 1213.49,1941.53 437.13,455.7 768.57,938 1164.94,1262.1 1294.18,1058.2 3049.75,1786.8 4951,2378.4 616.27,191.7 1165.49,444.9 1795.92,582.5 3143.7,686 6716.9,1135.2 10533,776.6 3774.9,-354.7 7225.3,-1219.7 9707.9,-2912.4 1504.9,-1026 2870.5,-2315.8 3883.2,-3640.43 922.6,12.34 2013.8,-445.24 1795.9,-1407.62 -90.3,-398.89 -424.7,-414.97 -776.6,-631.04"
         style="fill:#000000;fill-opacity:1;fill-rule:evenodd;stroke:none"
         id="path12" />
      <path
         d="m 24998.1,13811.6 c 270.9,12.1 284,-233.8 291.3,-485.4 -301.8,-58.9 -408.2,281.4 -291.3,485.4"
         style="fill:#000000;fill-opacity:1;fill-rule:evenodd;stroke:none"
         id="path14" />
      <path
         d="m 16843.5,13520.4 c 226.2,-16.6 257.4,-432.2 194.2,-582.5 -291.2,-25.9 -383,420.9 -194.2,582.5"
         style="fill:#000000;fill-opacity:1;fill-rule:evenodd;stroke:none"
         id="path16" />
      <path
         d="m 9028.74,13423.3 c 234.31,-105.4 350.98,-328.5 436.87,-582.4 -342.49,-24.7 -547.28,312.2 -436.87,582.4"
         style="fill:#000000;fill-opacity:1;fill-rule:evenodd;stroke:none"
         id="path18" />
      <path
         d="m 13640,13277.7 c 158.3,-84.4 205.2,-280.2 242.7,-485.4 -223.8,4.6 -356.9,297.8 -242.7,485.4"
         style="fill:#000000;fill-opacity:1;fill-rule:evenodd;stroke:none"
         id="path20" />
      <path
         d="m 21066.5,13132.1 c -36.8,-286.9 -259.9,-387.3 -534,-436.9 -17.1,63.8 -85.4,76.4 -97,145.7 94.5,192.7 386.7,405.4 631,291.2"
         style="fill:#000000;fill-opacity:1;fill-rule:evenodd;stroke:none"
         id="path22" />
      <path
         d="m 8591.88,13035 c 198.67,-11.7 218.13,-202.5 242.69,-388.3 -80.9,0 -161.8,0 -242.69,0 -71.36,70.6 -71.36,317.7 0,388.3"
         style="fill:#000000;fill-opacity:1;fill-rule:evenodd;stroke:none"
         id="path24" />
      <path
         d="m 24658.4,12986.5 c 48.5,0 97.1,0 145.6,0 -34.1,-212 82.5,-273.4 48.5,-485.4 -266.7,-52.6 -289.8,329.6 -194.1,485.4"
         style="fill:#000000;fill-opacity:1;fill-rule:evenodd;stroke:none"
         id="path26" />
      <path
         d="m 13106,12937.9 c 169.2,-59.2 319.4,-335.3 242.7,-485.4 -237.5,-9.2 -370.7,284 -242.7,485.4"
         style="fill:#000000;fill-opacity:1;fill-rule:evenodd;stroke:none"
         id="path28" />
      <path
         d="m 16503.8,12889.4 c 166.8,-11.1 211.5,-144.5 242.7,-291.2 -192.7,-187.4 -396.4,132.2 -242.7,291.2"
         style="fill:#000000;fill-opacity:1;fill-rule:evenodd;stroke:none"
         id="path30" />
      <path
         d="m 21212.1,12258.4 c -1.5,-226.9 -347.5,-307.2 -534,-194.2 -57,311.2 351.9,265.1 534,194.2"
         style="fill:#000000;fill-opacity:1;fill-rule:evenodd;stroke:none"
         id="path32" />
      <path
         d="m 29657.9,12015.7 c 217.2,-11.9 299.6,-330.2 145.6,-436.8 -146.2,40.9 -273.3,273.6 -145.6,436.8"
         style="fill:#000000;fill-opacity:1;fill-rule:evenodd;stroke:none"
         id="path34" />
      <path
         d="m 29318.1,11627.4 c 233.2,45.9 293.6,-253.5 194.2,-388.3 -203.9,-16.8 -311.1,235.9 -194.2,388.3"
         style="fill:#000000;fill-opacity:1;fill-rule:evenodd;stroke:none"
         id="path36" />
      <path
         d="m 5922.24,10753.7 c -13.09,-244.4 -283.78,-440.2 -485.42,-339.8 13.75,243.7 270.68,453.3 485.42,339.8"
         style="fill:#000000;fill-opacity:1;fill-rule:evenodd;stroke:none"
         id="path38" />
      <path
         d="m 19707.3,10462.4 c 245,2.3 318.4,-167 291.3,-436.8 -257.7,-15 -275.8,209.6 -291.3,436.8"
         style="fill:#000000;fill-opacity:1;fill-rule:evenodd;stroke:none"
         id="path40" />
      <path
         d="m 6213.45,9831.42 c -118.99,-104.74 -358.99,-36.17 -339.76,145.63 99.56,85.35 320.53,-2.3 339.76,-145.63"
         style="fill:#000000;fill-opacity:1;fill-rule:evenodd;stroke:none"
         id="path42" />
      <path
         d="m 26939.7,9977.05 c 126,-36.58 198.6,-272.53 97.1,-388.32 -179.2,-16.59 -176.3,294.79 -97.1,388.32"
         style="fill:#000000;fill-opacity:1;fill-rule:evenodd;stroke:none"
         id="path44" />
      <path
         d="m 19270.5,9831.42 c 159.3,-67.18 279.8,-173.26 291.3,-388.31 -201.1,-143.84 -522.1,236.08 -291.3,388.31"
         style="fill:#000000;fill-opacity:1;fill-rule:evenodd;stroke:none"
         id="path46" />
      <path
         d="m 26502.9,9831.42 c -63.4,-289.91 91.3,-361.68 145.6,-533.93 -394.4,-315.8 -684.5,614.59 -145.6,533.93"
         style="fill:#000000;fill-opacity:1;fill-rule:evenodd;stroke:none"
         id="path48" />
      <path
         d="m 10193.7,9734.34 c -32,-291.59 -217.89,-429.33 -436.88,-533.95 -27.23,319.44 235.72,604.32 436.88,533.95"
         style="fill:#000000;fill-opacity:1;fill-rule:evenodd;stroke:none"
         id="path50" />
      <path
         d="m 10630.5,9346 c 8,-250.66 -277.7,-411.73 -485.4,-291.21 -8.6,267.46 258.4,259.34 485.4,291.21"
         style="fill:#000000;fill-opacity:1;fill-rule:evenodd;stroke:none"
         id="path52" />
      <path
         d="m 26599.9,2502 c 235.1,-7.6 223.6,-261.8 291.3,-436.9 -323.7,-95.3 -418.9,235.9 -291.3,436.9"
         style="fill:#000000;fill-opacity:1;fill-rule:evenodd;stroke:none"
         id="path54" />
      <path
         d="m 27085.3,2453.5 c 198.4,-44.4 336.6,-148.8 388.4,-339.8 -169,-95.5 -422.9,76.8 -388.4,339.8"
         style="fill:#000000;fill-opacity:1;fill-rule:evenodd;stroke:none"
         id="path56" />
      <path
         d="m 12426.5,2307.8 c 260.7,-127.6 370.1,-406.5 485.4,-679.5 -379.9,-15.6 -609.5,350 -485.4,679.5"
         style="fill:#000000;fill-opacity:1;fill-rule:evenodd;stroke:none"
         id="path58" />
      <path
         d="m 20289.8,2307.8 c 78.4,13.7 83.6,-45.9 145.7,-48.5 -73.2,-218.1 -107.8,-474.7 -388.4,-485.4 -140.4,227.5 141.7,392.2 242.7,533.9"
         style="fill:#000000;fill-opacity:1;fill-rule:evenodd;stroke:none"
         id="path60" />
      <path
         d="m 11844,2113.7 c 196.5,-31.9 357.5,-297.1 291.2,-436.9 -228.5,-0.1 -422.7,231.9 -291.2,436.9"
         style="fill:#000000;fill-opacity:1;fill-rule:evenodd;stroke:none"
         id="path62" />
      <path
         d="m 20678.1,1773.9 c 178.4,-15.8 429.8,41.4 534,-48.5 -45.4,-197.4 -200.1,-285.3 -485.4,-242.7 -55.9,57.3 -54.9,171.5 -48.6,291.2"
         style="fill:#000000;fill-opacity:1;fill-rule:evenodd;stroke:none"
         id="path64" />
    </g>
  </g>
</svg>
